<?xml version="1.0" encoding="utf-8"?>
<!-- Generator: Adobe Illustrator 16.0.4, SVG Export Plug-In . SVG Version: 6.00 Build 0)  -->
<!DOCTYPE svg PUBLIC "-//W3C//DTD SVG 1.1//EN" "http://www.w3.org/Graphics/SVG/1.1/DTD/svg11.dtd">
<svg version="1.1" id="Ebene_1" xmlns="http://www.w3.org/2000/svg" xmlns:xlink="http://www.w3.org/1999/xlink" x="0px" y="0px"
	 width="595.275px" height="18px" viewBox="0 0 595.275 18" enable-background="new 0 0 595.275 18" xml:space="preserve">
<g>
	<g>
		<g>
			<g>
				<path fill="#D1CEC3" d="M305.905,2.578c-0.306,0.626,5.979-3.93,13.758,0.741c1.651,1.261,3.276,3.38,2.782,5.547
					c-0.504,2.27-3.049,3.09-5.929,2.984c-5.754-0.256-12.071-2.543-18.691-4.567c-6.659-2.017-13.059-4.243-19.455-4.291
					c-2.967-0.162-7.138,1.298-7.643,4.79c-0.467,3.33,1.872,5.646,3.756,6.919c4.232,2.686,8.419,1.8,10.795,1.172
					c2.483-0.696,3.671-1.548,3.699-1.467c0.304-0.627-5.981,3.931-13.76-0.74c-1.651-1.263-3.276-3.381-2.783-5.548
					c0.504-2.27,3.048-3.09,5.929-2.983c5.755,0.248,12.072,2.545,18.69,4.567c6.657,2.018,13.061,4.237,19.455,4.289
					c2.968,0.162,7.14-1.299,7.645-4.79c0.467-3.331-1.873-5.646-3.758-6.919c-4.229-2.686-8.419-1.799-10.793-1.171
					C307.118,1.808,305.931,2.658,305.905,2.578z"/>
			</g>
		</g>
		<g>
			<g>
				<path fill="#D1CEC3" d="M270.993,2.802c0.048,0.154,2.182-1.957,6.546-2.452c4.347-0.599,10.317,0.88,16.692,2.954
					c12.744,4.475,22.578,6.13,23.761,5.673c-1.238,0.348-10.611-2.405-23.374-6.88c-6.415-2.093-12.688-3.32-17.175-2.374
					C272.929,0.581,271.044,2.97,270.993,2.802z"/>
			</g>
		</g>
		<g>
			<g>
				<path fill="#D1CEC3" d="M324.606,14.08c-0.045-0.155-2.21,1.99-6.638,2.467c-4.411,0.588-10.453-0.968-16.913-3.067
					c-12.99-4.377-22.667-5.995-24.113-5.727c1.631-0.121,10.759,2.568,23.723,6.936c6.499,2.114,12.839,3.422,17.395,2.485
					C322.642,16.335,324.56,13.911,324.606,14.08z"/>
			</g>
		</g>
	</g>
	
		<line fill="none" stroke="#D1CEC3" stroke-width="1.1278" stroke-linecap="round" stroke-linejoin="round" stroke-miterlimit="10" x1="338.866" y1="7.83" x2="595.275" y2="7.83"/>
	
		<line fill="none" stroke="#D1CEC3" stroke-width="1.1278" stroke-linecap="round" stroke-linejoin="round" stroke-miterlimit="10" x1="0" y1="7.83" x2="256.409" y2="7.83"/>
</g>
</svg>
